<?xml version="1.0" encoding="utf-8"?>
<!-- Generator: Adobe Illustrator 19.0.0, SVG Export Plug-In . SVG Version: 6.00 Build 0)  -->
<svg version="1.1" id="Layer_1" xmlns="http://www.w3.org/2000/svg" xmlns:xlink="http://www.w3.org/1999/xlink" x="0px" y="0px"
	 viewBox="-483 485 32 32" style="enable-background:new -483 485 32 32;" xml:space="preserve">
<style type="text/css">
	.st0{fill:#7477BF;}
	.st1{fill:#FFFFFF;}
</style>
<circle class="st0" cx="-467" cy="501" r="15.8"/>
<path class="st1" d="M-465.5,508c0-0.2,0-0.4-0.1-0.6c-0.1-0.1-0.1-0.4-0.1-0.5s-0.1-0.3-0.2-0.5c-0.1-0.1-0.2-0.3-0.3-0.4
	c-0.1-0.1-0.2-0.2-0.4-0.4c-0.1-0.1-0.3-0.3-0.4-0.4c-0.1-0.1-0.2-0.2-0.4-0.4c-0.2-0.1-0.4-0.3-0.4-0.3s-0.2-0.1-0.4-0.3
	c-0.2-0.1-0.4-0.3-0.4-0.3c-0.1,0-0.4,0-0.7,0c-0.5,0-1,0-1.5,0.1c-0.5,0.1-1,0.1-1.5,0.4c-0.5,0.1-0.9,0.4-1.4,0.7
	c-0.4,0.3-0.7,0.6-0.9,1c-0.2,0.4-0.4,0.9-0.4,1.5c0,0.7,0.1,1.2,0.5,1.7c0.4,0.5,0.8,0.9,1.3,1.2s1.1,0.5,1.7,0.7
	c0.6,0.1,1.2,0.2,1.8,0.2c0.6,0,1.1-0.1,1.6-0.1c0.5-0.1,0.9-0.3,1.4-0.6c0.4-0.2,0.8-0.6,1-1C-465.7,509.1-465.5,508.6-465.5,508z
	 M-467.2,495.9c0-0.6-0.1-1.2-0.2-1.8c-0.1-0.7-0.4-1.2-0.7-1.8c-0.3-0.6-0.7-1.1-1.2-1.5c-0.5-0.4-1.1-0.6-1.7-0.6
	c-0.9,0-1.5,0.3-2,0.9s-0.7,1.4-0.7,2.3c0,0.4,0.1,0.9,0.1,1.4c0.1,0.5,0.3,0.9,0.5,1.5c0.2,0.5,0.5,0.9,0.8,1.3
	c0.3,0.4,0.7,0.7,1.1,0.9s0.9,0.4,1.4,0.4c0.9,0,1.5-0.3,2-0.9C-467.4,497.6-467.2,496.9-467.2,495.9z M-469,489.3h6.1l-1.9,1.1
	h-1.9c0.7,0.4,1.2,1,1.5,1.8c0.4,0.7,0.6,1.5,0.6,2.3c0,0.7-0.1,1.3-0.3,1.8c-0.2,0.5-0.5,0.9-0.8,1.3c-0.3,0.3-0.6,0.7-0.9,0.9
	c-0.3,0.3-0.6,0.6-0.8,0.9c-0.2,0.3-0.3,0.6-0.3,0.9c0,0.2,0.1,0.5,0.2,0.7c0.1,0.2,0.4,0.4,0.6,0.7c0.2,0.2,0.5,0.4,0.8,0.7
	s0.6,0.5,0.9,0.8s0.6,0.6,0.8,0.9c0.2,0.4,0.4,0.7,0.6,1.2c0.1,0.4,0.2,0.9,0.2,1.5c0,1.5-0.7,2.8-2,3.9c-1.4,1.2-3.4,1.8-5.9,1.8
	c-0.6,0-1.1-0.1-1.7-0.1s-1.2-0.2-1.7-0.4c-0.6-0.2-1.1-0.5-1.5-0.8s-0.8-0.7-1.1-1.2c-0.2-0.4-0.4-0.9-0.4-1.6
	c0-0.6,0.1-1.2,0.5-1.9c0.3-0.6,0.7-1.1,1.3-1.5c0.6-0.4,1.3-0.8,2-1s1.5-0.4,2.2-0.5c0.7-0.1,1.4-0.1,2.1-0.2
	c-0.6-0.8-0.9-1.5-0.9-2.1c0-0.1,0-0.2,0-0.4c0-0.1,0.1-0.2,0.1-0.3s0.1-0.1,0.1-0.3c0.1-0.1,0.1-0.2,0.1-0.3
	c-0.4,0.1-0.7,0.1-0.9,0.1c-1.4,0-2.6-0.4-3.6-1.4c-1-0.9-1.5-2-1.5-3.4c0-1.3,0.4-2.5,1.3-3.5c0.9-0.9,2-1.6,3.3-1.9
	C-470.8,489.4-469.9,489.3-469,489.3z M-454.5,492.9v1.8h-3.6v3.6h-1.8v-3.6h-3.6v-1.8h3.6v-3.6h1.8v3.6H-454.5z"/>
</svg>
