<?xml version="1.0" encoding="utf-8"?>
<!-- Generator: Adobe Illustrator 19.0.0, SVG Export Plug-In . SVG Version: 6.00 Build 0)  -->
<svg version="1.1" id="Layer_1" xmlns="http://www.w3.org/2000/svg" xmlns:xlink="http://www.w3.org/1999/xlink" x="0px" y="0px"
	 viewBox="0 0 100 100" style="enable-background:new 0 0 100 100;" xml:space="preserve">
<style type="text/css">
	.st0{fill:#E2574C;}
	.st1{fill:#CB4E44;}
</style>
<g>
	<g>
		<path class="st0" d="M91.2,15C76.4,0.1,61.8,6.6,50,17.2C38.2,6.6,23.7,0,8.8,15c-11.6,11.6-11.7,30.3,0,41.9
			c41.1,37,41.1,36.9,41.1,36.9s0.1,0.1,41.4-36.9C102.9,45.3,102.9,26.6,91.2,15L91.2,15z M91.2,15"/>
		<path class="st1" d="M50,17.2L50,17.2l0,76.5c0.7-0.6,5.5-4.8,41.3-36.8c11.7-11.6,11.6-30.3,0-41.9C76.4,0.1,61.8,6.6,50,17.2
			L50,17.2z M50,17.2"/>
	</g>
</g>
</svg>
