<?xml version="1.0" encoding="utf-8"?>
<!-- Generator: Adobe Illustrator 19.0.0, SVG Export Plug-In . SVG Version: 6.00 Build 0)  -->
<svg version="1.1" id="Layer_1" xmlns="http://www.w3.org/2000/svg" xmlns:xlink="http://www.w3.org/1999/xlink" x="0px" y="0px"
	 viewBox="0 0 100 100" style="enable-background:new 0 0 100 100;" xml:space="preserve">
<style type="text/css">
	.st0{fill:#7383BF;}
	.st1{fill:#424A60;}
</style>
<g>
	<path class="st0" d="M35.1,49.9c0,8.7-7.1,15.8-15.8,15.8c-8.7,0-15.8-7.1-15.8-15.8c0-8.7,7.1-15.8,15.8-15.8
		C28,34.1,35.1,41.2,35.1,49.9L35.1,49.9z M35.1,49.9"/>
	<path class="st0" d="M96.5,84.2c0,8.7-7.1,15.8-15.8,15.8c-8.7,0-15.8-7.1-15.8-15.8c0-8.7,7.1-15.8,15.8-15.8
		C89.4,68.4,96.5,75.5,96.5,84.2L96.5,84.2z M96.5,84.2"/>
	<path class="st0" d="M96.5,15.8c0,8.7-7.1,15.8-15.8,15.8c-8.7,0-15.8-7.1-15.8-15.8C64.9,7.1,72,0,80.7,0
		C89.4,0,96.5,7.1,96.5,15.8L96.5,15.8z M96.5,15.8"/>
	<path class="st1" d="M33.4,44.5c0.3,0,0.6-0.1,0.9-0.3l33.2-20c0.8-0.5,1.1-1.6,0.6-2.4c-0.5-0.8-1.6-1.1-2.4-0.6l-33.2,20
		c-0.8,0.5-1.1,1.6-0.6,2.4C32.2,44.2,32.8,44.5,33.4,44.5L33.4,44.5z M33.4,44.5"/>
	<path class="st1" d="M67.4,75.7L34.3,55.6c-0.8-0.5-1.9-0.2-2.4,0.6c-0.5,0.8-0.2,1.9,0.6,2.4l33.2,20.1c0.3,0.2,0.6,0.3,0.9,0.3
		c0.6,0,1.2-0.3,1.5-0.8C68.5,77.3,68.3,76.2,67.4,75.7L67.4,75.7z M67.4,75.7"/>
</g>
</svg>
