<?xml version="1.0" encoding="utf-8"?>
<!-- Generator: Adobe Illustrator 19.0.0, SVG Export Plug-In . SVG Version: 6.00 Build 0)  -->
<svg version="1.1" id="Layer_1" xmlns="http://www.w3.org/2000/svg" xmlns:xlink="http://www.w3.org/1999/xlink" x="0px" y="0px"
	 viewBox="0 0 10.3 10.3" style="enable-background:new 0 0 10.3 10.3;" xml:space="preserve">
<style type="text/css">
	.st0{fill:#FFFFFF;}
</style>
<g id="X_Button">
	<path class="st0" d="M0.3,1.8L8.5,10c0.4,0.4,1.1,0.4,1.5,0l0,0c0.4-0.4,0.4-1.1,0-1.5L1.8,0.3c-0.4-0.4-1.1-0.4-1.5,0l0,0
		C-0.1,0.7-0.1,1.4,0.3,1.8z"/>
	<path class="st0" d="M8.5,0.3L0.3,8.5c-0.4,0.4-0.4,1.1,0,1.5l0,0c0.4,0.4,1.1,0.4,1.5,0L10,1.8c0.4-0.4,0.4-1.1,0-1.5l0,0
		C9.6-0.1,8.9-0.1,8.5,0.3z"/>
</g>
</svg>
