<?xml version="1.0" encoding="utf-8"?>
<!-- Generator: Adobe Illustrator 19.0.0, SVG Export Plug-In . SVG Version: 6.00 Build 0)  -->
<svg version="1.1" id="Layer_1" xmlns="http://www.w3.org/2000/svg" xmlns:xlink="http://www.w3.org/1999/xlink" x="0px" y="0px"
	 viewBox="0 0 100 100" style="enable-background:new 0 0 100 100;" xml:space="preserve">
<style type="text/css">
	.st0{fill:#2B7B57;}
	.st1{fill:#49B86E;}
</style>
<g>
	<g>
		<path class="st0" d="M81.6,68.7H49.3l-0.1,22.9h27.2c3.3,0,6.3-1.8,7.9-4.6l4-6.9l-0.2-0.1L81.6,68.7z M81.6,68.7"/>
		<path class="st0" d="M34.6,40.7L14.8,29.2L1.2,52.8c-1.6,2.8-1.6,6.3,0,9.2l3.9,6.8h13.3L34.6,40.7z M34.6,40.7"/>
		<path class="st0" d="M50,13.8c0,0,16,27.9,16,27.9L86,30.4L72.4,6.8c-1.6-2.8-4.7-4.6-7.9-4.6h-7.9v0.2L50,13.8z M50,13.8"/>
		<path class="st1" d="M42,62.5h-0.1c-1.4,0-2.5,1.1-2.5,2.5v3.7H5.1l11.3,19.6c1.2,2.1,3.4,3.3,5.7,3.3h17.2v3.7
			c0,1.4,1.1,2.5,2.5,2.5h0c0.7,0,1.3-0.3,1.8-0.7l15.2-15.2c1-1,1-2.6,0-3.6l-9.6-9.6l-5.5-5.5C43.3,62.7,42.7,62.5,42,62.5
			L42,62.5z M42,62.5"/>
		<path class="st1" d="M43.6,37.5l0.1-0.1c0.7-1.2,0.3-2.7-0.9-3.4l-3.2-1.8L50,13.8l6.5-11.4V2.2H35.5c-3.3,0-6.3,1.8-8,4.7
			l-7.8,13.8l-3.2-1.8c-1.2-0.7-2.7-0.3-3.4,0.9l0,0c-0.3,0.6-0.4,1.3-0.2,1.9l2,7.5l3.6,13.3c0.4,1.3,1.7,2.1,3.1,1.8l20.6-5.6
			C42.7,38.5,43.3,38.1,43.6,37.5L43.6,37.5z M43.6,37.5"/>
		<path class="st1" d="M90.9,38.9l3.2-1.8c1.2-0.7,1.6-2.2,0.9-3.4c-0.3-0.6-0.9-1-1.5-1.2l-20.8-5.6c-1.3-0.4-2.7,0.4-3.1,1.8
			L64,49.2c-0.2,0.6-0.1,1.3,0.2,1.9l0.1,0.1c0.7,1.2,2.2,1.6,3.4,0.9l3.2-1.8l10.6,18.4l6.5,11.3l0.2,0.1l10.5-18.3
			c1.6-2.8,1.6-6.3,0-9.1L90.9,38.9z M90.9,38.9"/>
	</g>
</g>
</svg>
