<?xml version="1.0" encoding="utf-8"?>
<!-- Generator: Adobe Illustrator 19.0.0, SVG Export Plug-In . SVG Version: 6.00 Build 0)  -->
<svg version="1.1" id="Layer_1" xmlns="http://www.w3.org/2000/svg" xmlns:xlink="http://www.w3.org/1999/xlink" x="0px" y="0px"
	 viewBox="-483 485 32 32" style="enable-background:new -483 485 32 32;" xml:space="preserve">
<style type="text/css">
	.st0{fill:#7477BF;}
	.st1{fill:#FFFFFF;}
</style>
<circle class="st0" cx="-467" cy="501" r="15.8"/>
<path class="st1" d="M-454.8,493.4c-0.9,0.4-1.8,0.7-2.9,0.8c1.1-0.6,1.8-1.6,2.2-2.7c-1,0.6-2.1,1-3.2,1.2c-0.8-1-2.2-1.6-3.6-1.6
	c-2.7,0-5,2.2-5,5c0,0.4,0.1,0.8,0.2,1.1c-4.2-0.2-7.9-2.2-10.4-5.3c-0.5,0.8-0.7,1.6-0.7,2.5c0,1.8,0.9,3.3,2.2,4.2
	c-0.8,0-1.6-0.2-2.3-0.6v0.1c0,2.4,1.8,4.4,4,4.9c-0.5,0.1-0.8,0.2-1.3,0.2c-0.3,0-0.6,0-0.9-0.1c0.6,2,2.5,3.4,4.7,3.5
	c-1.7,1.4-3.9,2.1-6.3,2.1c-0.4,0-0.8,0-1.2-0.1c2.2,1.4,4.9,2.3,7.7,2.3c9.2,0,14.3-7.6,14.3-14.3c0-0.2,0-0.5,0-0.6
	C-456.3,495.3-455.4,494.4-454.8,493.4z"/>
</svg>
